<svg width="26" height="26" viewBox="0 0 26 26" fill="none" xmlns="http://www.w3.org/2000/svg">
<g filter="url(#filter0_d_1_12)">
<path d="M16.5 11H15.71L15.43 10.73C16.41 9.59 17 8.11 17 6.5C17 2.91 14.09 0 10.5 0C6.91 0 4 2.91 4 6.5C4 10.09 6.91 13 10.5 13C12.11 13 13.59 12.41 14.73 11.43L15 11.71V12.5L20 17.49L21.49 16L16.5 11V11ZM10.5 11C8.01 11 6 8.99 6 6.5C6 4.01 8.01 2 10.5 2C12.99 2 15 4.01 15 6.5C15 8.99 12.99 11 10.5 11Z" fill="black" fill-opacity="0.54" shape-rendering="crispEdges"/>
</g>
<defs>
<filter id="filter0_d_1_12" x="0" y="0" width="25.49" height="25.49" filterUnits="userSpaceOnUse" color-interpolation-filters="sRGB">
<feFlood flood-opacity="0" result="BackgroundImageFix"/>
<feColorMatrix in="SourceAlpha" type="matrix" values="0 0 0 0 0 0 0 0 0 0 0 0 0 0 0 0 0 0 127 0" result="hardAlpha"/>
<feOffset dy="4"/>
<feGaussianBlur stdDeviation="2"/>
<feComposite in2="hardAlpha" operator="out"/>
<feColorMatrix type="matrix" values="0 0 0 0 0 0 0 0 0 0 0 0 0 0 0 0 0 0 0.25 0"/>
<feBlend mode="normal" in2="BackgroundImageFix" result="effect1_dropShadow_1_12"/>
<feBlend mode="normal" in="SourceGraphic" in2="effect1_dropShadow_1_12" result="shape"/>
</filter>
</defs>
</svg>
